<svg aria-hidden="true" style="position: absolute; width: 0; height: 0; overflow: hidden;" version="1.1" xmlns="http://www.w3.org/2000/svg" xmlns:xlink="http://www.w3.org/1999/xlink">
<defs>
<symbol id="icon-in" viewBox="0 0 32 32">
<path fill="#fff" style="fill: var(--color1, #fff)" d="M32.004 16.002c0 0.006 0 0.013 0 0.020 0 4.412-1.791 8.406-4.687 11.294l-0 0c-2.888 2.896-6.882 4.687-11.295 4.687-0.007 0-0.014 0-0.021 0h0.001c-0.006 0-0.013 0-0.020 0-4.412 0-8.406-1.791-11.294-4.687l-0-0c-2.896-2.888-4.687-6.882-4.687-11.295 0-0.007 0-0.014 0-0.021v0.001c0-0.006 0-0.013 0-0.020 0-4.412 1.792-8.406 4.687-11.294l0-0c2.888-2.896 6.882-4.687 11.295-4.687 0.007 0 0.014 0 0.021 0h-0.001c0.006 0 0.013 0 0.020 0 4.412 0 8.406 1.792 11.294 4.687l0 0c2.896 2.888 4.687 6.882 4.687 11.295 0 0.007 0 0.014 0 0.021v-0.001z"></path>
<path fill="#afb1b8" style="fill: var(--color2, #afb1b8)" d="M23.272 23.276h0.004v-5.336c0-2.61-0.562-4.62-3.613-4.62-1.467 0-2.451 0.804-2.853 1.567h-0.042v-1.324h-2.893v9.712h3.013v-4.809c0-1.266 0.24-2.491 1.808-2.491 1.545 0 1.568 1.445 1.568 2.572v4.729h3.009zM8.968 13.564h3.016v9.712h-3.016v-9.712zM10.476 8.728c-0.965 0-1.747 0.782-1.747 1.747v0c0 0.964 0.783 1.763 1.747 1.763s1.746-0.799 1.746-1.763c-0-0.964-0.782-1.746-1.746-1.747h-0z"></path>
</symbol>
<symbol id="icon-fb" viewBox="0 0 32 32">
<path fill="#fff" style="fill: var(--color1, #fff)" d="M32.004 16.002c0 0.006 0 0.013 0 0.020 0 4.412-1.791 8.406-4.687 11.294l-0 0c-2.888 2.896-6.882 4.687-11.295 4.687-0.007 0-0.014 0-0.021 0h0.001c-0.006 0-0.013 0-0.020 0-4.412 0-8.406-1.791-11.294-4.687l-0-0c-2.896-2.888-4.687-6.882-4.687-11.295 0-0.007 0-0.014 0-0.021v0.001c0-0.006 0-0.013 0-0.020 0-4.412 1.792-8.406 4.687-11.294l0-0c2.888-2.896 6.882-4.687 11.295-4.687 0.007 0 0.014 0 0.021 0h-0.001c0.006 0 0.013 0 0.020 0 4.412 0 8.406 1.792 11.294 4.687l0 0c2.896 2.888 4.687 6.882 4.687 11.295 0 0.007 0 0.014 0 0.021v-0.001z"></path>
<path fill="#afb1b8" style="fill: var(--color2, #afb1b8)" d="M18.424 11.143h1.329v-2.313c-0.56-0.065-1.21-0.102-1.868-0.102-0.024 0-0.047 0-0.071 0h0.004c-1.915 0-3.227 1.205-3.227 3.419v2.037h-2.113v2.586h2.113v6.506h2.591v-6.506h2.027l0.322-2.586h-2.35v-1.782c0-0.747 0.201-1.258 1.243-1.258z"></path>
</symbol>
<symbol id="icon-twiter" viewBox="0 0 32 32">
<path fill="#fff" style="fill: var(--color1, #fff)" d="M32.004 16.002c0 0.006 0 0.013 0 0.020 0 4.412-1.791 8.406-4.687 11.294l-0 0c-2.888 2.896-6.882 4.687-11.295 4.687-0.007 0-0.014 0-0.021 0h0.001c-0.006 0-0.013 0-0.020 0-4.412 0-8.406-1.791-11.294-4.687l-0-0c-2.896-2.888-4.687-6.882-4.687-11.295 0-0.007 0-0.014 0-0.021v0.001c0-0.006 0-0.013 0-0.020 0-4.412 1.792-8.406 4.687-11.294l0-0c2.888-2.896 6.882-4.687 11.295-4.687 0.007 0 0.014 0 0.021 0h-0.001c0.006 0 0.013 0 0.020 0 4.412 0 8.406 1.792 11.294 4.687l0 0c2.896 2.888 4.687 6.882 4.687 11.295 0 0.007 0 0.014 0 0.021v-0.001z"></path>
<path fill="#afb1b8" style="fill: var(--color2, #afb1b8)" d="M23.276 11.492c-0.5 0.224-1.080 0.39-1.688 0.467l-0.031 0.003c0.618-0.371 1.083-0.945 1.306-1.627l0.006-0.021c-0.544 0.328-1.178 0.579-1.853 0.715l-0.038 0.006c-0.546-0.582-1.319-0.945-2.178-0.945-1.647 0-2.981 1.335-2.981 2.981 0 0.001 0 0.002 0 0.003v-0c0 0.236 0.020 0.464 0.070 0.68-2.48-0.121-4.673-1.309-6.148-3.12-0.256 0.432-0.407 0.952-0.407 1.508v0c0 1.033 0.531 1.949 1.324 2.478-0.496-0.014-0.959-0.148-1.362-0.375l0.015 0.008v0.033c0.001 1.439 1.017 2.64 2.37 2.928l0.020 0.003c-0.227 0.062-0.487 0.098-0.756 0.098-0.009 0-0.018-0-0.028-0h0.001c-0.014 0-0.030 0-0.047 0-0.183 0-0.362-0.019-0.534-0.054l0.017 0.003c0.386 1.181 1.483 2.050 2.787 2.078-1.007 0.793-2.293 1.271-3.691 1.271-0.003 0-0.005 0-0.008 0h0c-0.012 0-0.026 0-0.039 0-0.238 0-0.472-0.015-0.701-0.044l0.027 0.003c1.285 0.839 2.858 1.338 4.548 1.338 0.010 0 0.019-0 0.029-0h-0.002c5.488 0 8.488-4.546 8.488-8.487 0-0.131-0.004-0.259-0.011-0.386 0.59-0.426 1.087-0.939 1.481-1.526l0.014-0.021z"></path>
</symbol>
<symbol id="icon-instagramm" viewBox="0 0 32 32">
<path fill="#2196f3" style="fill: var(--color3, #2196f3)" d="M32.004 16.002c0 0.006 0 0.013 0 0.020 0 4.412-1.791 8.406-4.687 11.294l-0 0c-2.888 2.896-6.882 4.687-11.295 4.687-0.007 0-0.014 0-0.021 0h0.001c-0.006 0-0.013 0-0.020 0-4.412 0-8.406-1.791-11.294-4.687l-0-0c-2.896-2.888-4.687-6.882-4.687-11.295 0-0.007 0-0.014 0-0.021v0.001c0-0.006 0-0.013 0-0.020 0-4.412 1.792-8.406 4.687-11.294l0-0c2.888-2.896 6.882-4.687 11.295-4.687 0.007 0 0.014 0 0.021 0h-0.001c0.006 0 0.013 0 0.020 0 4.412 0 8.406 1.792 11.294 4.687l0 0c2.896 2.888 4.687 6.882 4.687 11.295 0 0.007 0 0.014 0 0.021v-0.001z"></path>
<path fill="#fff" style="fill: var(--color1, #fff)" d="M23.261 13.005c-0.033-0.773-0.159-1.304-0.337-1.765-0.193-0.505-0.479-0.936-0.841-1.29l-0.001-0.001c-0.354-0.36-0.784-0.645-1.263-0.83l-0.024-0.008c-0.463-0.179-0.991-0.304-1.765-0.338-0.778-0.037-1.026-0.046-3.001-0.046s-2.222 0.009-2.998 0.043c-0.773 0.033-1.304 0.159-1.765 0.338-0.505 0.193-0.936 0.479-1.29 0.84l-0.001 0.001c-0.36 0.354-0.645 0.784-0.83 1.263l-0.008 0.024c-0.18 0.463-0.304 0.991-0.338 1.765-0.037 0.778-0.046 1.026-0.046 3.001s0.009 2.222 0.043 2.998c0.034 0.773 0.159 1.304 0.338 1.765 0.194 0.505 0.48 0.935 0.84 1.29l0.001 0c0.364 0.369 0.804 0.656 1.287 0.838 0.463 0.18 0.992 0.305 1.765 0.338 0.776 0.034 1.023 0.043 2.998 0.043s2.222-0.009 2.998-0.043c0.773-0.033 1.304-0.159 1.765-0.337 0.981-0.386 1.743-1.148 2.12-2.104l0.009-0.025c0.179-0.463 0.304-0.992 0.338-1.765 0.034-0.776 0.042-1.023 0.042-2.998s-0.003-2.222-0.036-2.998zM21.952 18.945c-0.032 0.711-0.151 1.094-0.25 1.349-0.251 0.637-0.745 1.131-1.366 1.376l-0.016 0.006c-0.255 0.099-0.642 0.218-1.349 0.25-0.767 0.034-0.997 0.043-2.939 0.043s-2.174-0.009-2.939-0.043c-0.711-0.031-1.094-0.151-1.35-0.25-0.328-0.122-0.607-0.307-0.835-0.542l-0.001-0.001c-0.235-0.229-0.42-0.508-0.538-0.819l-0.005-0.016c-0.099-0.256-0.218-0.642-0.249-1.35-0.034-0.767-0.043-0.998-0.043-2.939s0.009-2.175 0.043-2.939c0.031-0.711 0.151-1.094 0.249-1.35 0.122-0.328 0.308-0.608 0.545-0.835l0.001-0.001c0.229-0.235 0.509-0.42 0.821-0.537l0.016-0.005c0.255-0.099 0.642-0.218 1.349-0.25 0.767-0.033 0.998-0.042 2.939-0.042 1.944 0 2.174 0.008 2.939 0.042 0.711 0.031 1.094 0.151 1.35 0.25 0.315 0.116 0.602 0.301 0.835 0.543 0.241 0.236 0.426 0.52 0.543 0.836 0.099 0.255 0.218 0.642 0.25 1.349 0.034 0.767 0.043 0.997 0.043 2.939s-0.009 2.168-0.043 2.936z"></path>
<path fill="#fff" style="fill: var(--color1, #fff)" d="M16.029 12.266c-0 0-0 0-0.001 0-2.064 0-3.738 1.674-3.738 3.738s1.674 3.738 3.738 3.738c2.064 0 3.738-1.674 3.738-3.738 0-0 0-0 0-0.001v0c-0-2.064-1.673-3.737-3.737-3.737h-0zM16.029 18.427c-1.339-0-2.424-1.086-2.424-2.424s1.085-2.424 2.424-2.424c0 0 0 0 0 0h-0c1.339 0 2.425 1.086 2.425 2.425s-1.086 2.425-2.425 2.425v0zM20.787 12.119c0 0.482-0.391 0.873-0.873 0.873s-0.873-0.391-0.873-0.873v0c0-0.482 0.391-0.873 0.873-0.873s0.873 0.391 0.873 0.873v0z"></path>
</symbol>
<symbol id="icon-Group-2-1" viewBox="0 0 72 32">
<path fill="#f5f4fa" style="fill: var(--color4, #f5f4fa)" d="M1.067 0.001h69.869c0.589 0 1.067 0.478 1.067 1.067v29.868c0 0.589-0.478 1.067-1.067 1.067h-69.869c-0.589 0-1.067-0.478-1.067-1.067v-29.868c0-0.589 0.478-1.067 1.067-1.067z"></path>
<path fill="#212121" style="fill: var(--color5, #212121)" d="M44.925 15.594c-0.001-4.931-3.999-8.927-8.93-8.926s-8.927 3.999-8.926 8.93c0.001 3.96 2.58 7.317 6.149 8.485l0.063 0.018c0.035 0.011 0.072 0.017 0.109 0.017 0.070 0 0.139-0.019 0.2-0.055 0.079-0.047 0.138-0.121 0.165-0.208l2.255-7.146c0.614-0.003 1.11-0.501 1.11-1.116 0-0.002 0-0.004-0-0.006v0c-0.003-0.614-0.501-1.11-1.116-1.11-0.002 0-0.004 0-0.006 0h0c-0.174 0.001-0.339 0.042-0.485 0.115l0.006-0.003-2.978-2.979c-0.067-0.064-0.158-0.104-0.258-0.104-0.205 0-0.372 0.167-0.372 0.372 0 0.1 0.040 0.191 0.104 0.258l-0-0 2.977 2.98c-0.070 0.141-0.112 0.306-0.112 0.481 0 0.351 0.165 0.663 0.422 0.864l0.002 0.002-2.148 6.81c-4.245-1.564-6.419-6.274-4.856-10.519s6.273-6.419 10.519-4.855c4.245 1.564 6.419 6.273 4.855 10.519-0.784 2.089-2.335 3.737-4.302 4.631l-0.051 0.021-0.232-1.093c-0.037-0.17-0.186-0.295-0.364-0.295-0.095 0-0.182 0.036-0.248 0.095l0-0-2.238 1.998c-0.077 0.068-0.125 0.168-0.125 0.278 0 0.165 0.108 0.305 0.257 0.354l0.003 0.001 2.858 0.912c0.034 0.011 0.073 0.018 0.114 0.018 0.205 0 0.372-0.166 0.372-0.372 0-0.028-0.003-0.055-0.009-0.080l0 0.002-0.228-1.073c3.225-1.385 5.442-4.534 5.442-8.2 0-0.007 0-0.013-0-0.020v0.001zM35.997 15.222c0.205 0 0.372 0.167 0.372 0.372s-0.167 0.372-0.372 0.372v0c-0.205 0-0.372-0.167-0.372-0.372s0.167-0.372 0.372-0.372v0zM37.222 23.893l1.274-1.137 0.352 1.657-1.626-0.52z"></path>
<path fill="#2196f3" style="fill: var(--color3, #2196f3)" d="M35.625 8.526v0.744c0 0.205 0.167 0.372 0.372 0.372s0.372-0.167 0.372-0.372v0-0.744c0-0.205-0.167-0.372-0.372-0.372s-0.372 0.167-0.372 0.372v0zM28.929 15.222c-0.205 0-0.372 0.167-0.372 0.372s0.167 0.372 0.372 0.372h0.744c0.205 0 0.372-0.167 0.372-0.372s-0.167-0.372-0.372-0.372h-0.744zM43.065 15.966c0.205 0 0.372-0.167 0.372-0.372s-0.167-0.372-0.372-0.372h-0.744c-0.205 0-0.372 0.167-0.372 0.372s0.167 0.372 0.372 0.372h0.744z"></path>
</symbol>
<symbol id="icon-Group-3-1" viewBox="0 0 72 32">
<path fill="#f5f4fa" style="fill: var(--color4, #f5f4fa)" d="M1.067 0.001h69.869c0.589 0 1.067 0.478 1.067 1.067v29.868c0 0.589-0.478 1.067-1.067 1.067h-69.869c-0.589 0-1.067-0.478-1.067-1.067v-29.868c0-0.589 0.478-1.067 1.067-1.067z"></path>
<path fill="#2196f3" style="fill: var(--color3, #2196f3)" d="M35.375 15.397h0.622v2.799h-0.622v-2.799zM37.862 16.641h0.622v1.555h-0.622v-1.555zM32.887 17.574h0.622v0.622h-0.622v-0.622zM31.021 17.263h0.622v0.933h-0.622v-0.933z"></path>
<path fill="#212121" style="fill: var(--color5, #212121)" d="M27.6 23.171h14.926c0.515 0 0.933-0.418 0.933-0.933v-1.244c0-0.515-0.418-0.933-0.933-0.933v0h-0.311v-7.755l1.766-1.673c0.121 0.061 0.264 0.097 0.415 0.097 0.518 0 0.938-0.42 0.938-0.938s-0.42-0.938-0.938-0.938c-0.518 0-0.938 0.42-0.938 0.938 0 0.144 0.032 0.28 0.090 0.402l-0.002-0.006-1.331 1.262v-0.717c-0-0.515-0.418-0.933-0.933-0.933h-12.439c-0.515 0-0.933 0.418-0.933 0.933v0 9.329h-0.311c-0.515 0-0.933 0.418-0.933 0.933v1.244c0 0.515 0.418 0.933 0.933 0.933v0zM44.392 9.489c0.172 0 0.311 0.139 0.311 0.311s-0.139 0.311-0.311 0.311v0c-0.172 0-0.311-0.139-0.311-0.311s0.139-0.311 0.311-0.311v0zM28.533 10.733c0-0.172 0.139-0.311 0.311-0.311h12.439c0.172 0 0.311 0.139 0.311 0.311v1.306l-0.622 0.591v-1.275c0-0.172-0.139-0.311-0.311-0.311h-11.195c-0.172 0-0.311 0.139-0.311 0.311v7.774c0 0.172 0.139 0.311 0.311 0.311h11.195c0.171 0 0.311-0.139 0.311-0.311v-5.644l0.622-0.589v7.166h-13.060v-9.328zM31.332 14.775c-0.001 0-0.002 0-0.003 0-0.515 0-0.933 0.418-0.933 0.933s0.418 0.933 0.933 0.933c0.252 0 0.481-0.1 0.649-0.263l-0 0 1.081 0.542c0.040 0.021 0.088 0.033 0.139 0.033 0.092 0 0.175-0.040 0.232-0.104l0-0 2.298-2.585 2.259 1.693c0.121 0.091 0.29 0.081 0.4-0.023l1.963-1.86v4.743h-10.572v-7.152h10.572v1.552l-2.2 2.084-2.278-1.708c-0.051-0.039-0.116-0.062-0.187-0.062-0.092 0-0.175 0.040-0.232 0.104l-0 0-2.329 2.621-0.871-0.435c0.006-0.033 0.010-0.072 0.012-0.111l0-0.002c0-0.515-0.418-0.933-0.933-0.933v0zM31.643 15.708c0 0.172-0.139 0.311-0.311 0.311s-0.311-0.139-0.311-0.311v0c0-0.172 0.139-0.311 0.311-0.311s0.311 0.139 0.311 0.311v0zM33.509 20.684h3.11v0.311c0 0.172-0.139 0.311-0.311 0.311h-2.488c-0.172 0-0.311-0.139-0.311-0.311v0-0.311zM27.29 20.995c0-0.172 0.139-0.311 0.311-0.311h5.286v0.311c0 0.515 0.418 0.933 0.933 0.933h2.488c0.515 0 0.933-0.418 0.933-0.933v0-0.311h5.286c0.172 0 0.311 0.139 0.311 0.311v1.244c0 0.172-0.139 0.311-0.311 0.311h-14.926c-0.172 0-0.311-0.139-0.311-0.311v0-1.244z"></path>
</symbol>
<symbol id="icon-Group-4-1" viewBox="0 0 72 32">
<path fill="#f5f4fa" style="fill: var(--color4, #f5f4fa)" d="M1.067 0.001h69.869c0.589 0 1.067 0.478 1.067 1.067v29.868c0 0.589-0.478 1.067-1.067 1.067h-69.869c-0.589 0-1.067-0.478-1.067-1.067v-29.868c0-0.589 0.478-1.067 1.067-1.067z"></path>
<path fill="#2196f3" style="fill: var(--color3, #2196f3)" d="M45.32 9.307c-0.037-0.111-0.133-0.194-0.249-0.211l-0.002-0-1.114-0.162-0.499-1.010c-0.105-0.213-0.453-0.213-0.558 0l-0.499 1.010-1.115 0.162c-0.152 0.022-0.267 0.151-0.267 0.308 0 0.088 0.036 0.167 0.094 0.223l0 0 0.807 0.786-0.19 1.11c-0.020 0.117 0.028 0.235 0.123 0.304 0.097 0.070 0.223 0.079 0.328 0.024l0.997-0.525 0.997 0.524c0.042 0.022 0.092 0.036 0.145 0.036 0.069 0 0.132-0.022 0.184-0.060l-0.001 0.001c0.096-0.069 0.144-0.187 0.123-0.304l-0.19-1.11 0.807-0.786c0.058-0.057 0.094-0.136 0.094-0.223 0-0.034-0.006-0.067-0.016-0.098l0.001 0.002zM43.883 10.081c-0.058 0.056-0.094 0.135-0.094 0.223 0 0.019 0.002 0.037 0.005 0.055l-0-0.002 0.111 0.65-0.584-0.307c-0.042-0.023-0.092-0.036-0.145-0.036s-0.103 0.013-0.147 0.037l0.002-0.001-0.584 0.307 0.111-0.65c0.003-0.016 0.005-0.034 0.005-0.053 0-0.087-0.036-0.166-0.094-0.222l-0-0-0.473-0.461 0.653-0.095c0.101-0.015 0.189-0.078 0.234-0.17l0.292-0.591 0.292 0.591c0.046 0.092 0.133 0.156 0.234 0.17l0.653 0.095-0.472 0.461zM41.913 18.639h-0.622v0.622h0.622v-0.622zM41.913 19.884h-0.622v0.622h0.622v-0.622zM42.535 19.262h-0.622v0.622h0.622v-0.622zM41.291 19.262h-0.622v0.622h0.622v-0.622zM39.735 22.062h-0.622v0.622h0.622v-0.622zM39.735 23.306h-0.622v0.622h0.622v-0.622zM40.357 22.684h-0.622v0.622h0.622v-0.622zM39.113 22.684h-0.622v0.622h0.622v-0.622zM36.001 20.817h-0.622v0.622h0.622v-0.622zM36.001 22.062h-0.622v0.622h0.622v-0.622zM36.623 21.439h-0.622v0.622h0.622v-0.622zM35.379 21.439h-0.622v0.622h0.622v-0.622zM30.090 10.239h-0.622v0.622h0.622v-0.622zM30.090 11.484h-0.622v0.622h0.622v-0.622zM30.712 10.861h-0.622v0.622h0.622v-0.622zM29.468 10.861h-0.622v0.622h0.622v-0.622z"></path>
<path fill="#212121" style="fill: var(--color5, #212121)" d="M41.085 14.928c-0.163-0.22-0.408-0.371-0.688-0.41l-0.005-0.001c-0.045-0.007-0.096-0.011-0.148-0.011-0.24 0-0.46 0.081-0.636 0.218l0.002-0.002-0.73 0.56-1.107 0.827-0.792-0.316c1.413-0.634 2.4-2.046 2.4-3.687 0-2.23-1.822-4.045-4.061-4.045s-4.061 1.814-4.061 4.045c0 0.808 0.242 1.56 0.653 2.193l-1.615-0.014c-0.005 0-0.009 0.003-0.014 0.003-0.033 0.002-0.064 0.008-0.093 0.019l0.002-0.001c-0.007 0.003-0.015 0.004-0.022 0.008-0.004 0.001-0.007 0.002-0.011 0.004l-1.886 0.931c-0 0-0.001 0-0.001 0.001l-1.104 0.531c-0.014 0.006-0.026 0.013-0.038 0.021l0.001-0.001c-0.281 0.189-0.464 0.506-0.464 0.865 0 0.173 0.042 0.336 0.117 0.48l-0.003-0.006c0.128 0.247 0.346 0.433 0.609 0.516l0.007 0.002c0.094 0.031 0.201 0.048 0.313 0.048 0.18 0 0.349-0.046 0.496-0.126l-0.005 0.003 0.81-0.43 1.321-0.682 0.791-0.005-3.956 3.937c-0.177 0.175-0.286 0.417-0.286 0.685 0 0.001 0 0.002 0 0.002v-0c0 0.001 0 0.001 0 0.002 0 0.268 0.109 0.511 0.286 0.686l0 0c0.176 0.175 0.418 0.283 0.686 0.283 0.001 0 0.001 0 0.002 0h-0c0.25 0 0.498-0.094 0.689-0.283l0.767-0.764 1.015-0.758 0.525 0.523-1.809 1.802c-0.177 0.174-0.286 0.417-0.286 0.685 0 0.001 0 0.002 0 0.003v-0c0.001 0.536 0.436 0.971 0.973 0.971 0 0 0.001 0 0.001 0h-0c0.249 0 0.499-0.094 0.689-0.283l2.618-2.609c0.004-0.004 0.009-0.005 0.013-0.009l3.013-3.301 2.025 0.288c0.015 0.002 0.029 0.003 0.044 0.003 0.038 0 0.074-0.009 0.109-0.022 0.010-0.004 0.019-0.009 0.029-0.014 0.011-0.006 0.023-0.009 0.034-0.016l1.874-1.244c0.007-0.005 0.011-0.012 0.017-0.017 0.007-0.006 0.017-0.008 0.024-0.015l0.742-0.695c0.203-0.19 0.329-0.459 0.329-0.758 0-0.233-0.077-0.449-0.207-0.622l0.002 0.003zM27.91 17.034c-0.057 0.032-0.125 0.050-0.198 0.050-0.046 0-0.090-0.007-0.131-0.021l0.003 0.001c-0.172-0.054-0.295-0.212-0.295-0.398 0-0.138 0.067-0.26 0.17-0.336l0.001-0.001 0.766-0.369 0.185 0.539 0.077 0.227-0.579 0.307zM29.95 15.968l-0.903 0.467-0.149-0.435-0.107-0.313 1.182-0.584-0.023 0.866zM38.759 12.106c0 0.536-0.128 1.041-0.349 1.493l-2.439-1.108c-0.025-0.335-0.2-0.626-0.456-0.807l-0.003-0.002 0.854-2.836c1.387 0.441 2.395 1.735 2.395 3.26zM31.882 12.106c0-1.887 1.542-3.423 3.439-3.423 0.147 0 0.292 0.013 0.435 0.031l-0.836 2.773c-0.011 0-0.022-0.003-0.033-0.003-0.602 0-1.093 0.488-1.093 1.089s0.49 1.089 1.093 1.089c0.405 0 0.755-0.223 0.944-0.551l2.253 1.024c-0.627 0.844-1.63 1.394-2.763 1.394-1.896 0-3.439-1.535-3.439-3.422zM35.356 12.572c0 0.257-0.211 0.467-0.47 0.467-0 0-0.001 0-0.001 0-0.258 0-0.468-0.209-0.469-0.467v-0c0-0.257 0.211-0.467 0.47-0.467s0.47 0.209 0.47 0.467zM28.106 21.337c-0.064 0.063-0.152 0.103-0.249 0.103s-0.185-0.039-0.249-0.102l0 0c-0.064-0.063-0.103-0.15-0.103-0.246s0.039-0.184 0.103-0.246l0-0 0.561-0.559 0.497 0.494-0.559 0.557zM29.98 23.515c-0.064 0.063-0.152 0.103-0.249 0.103s-0.185-0.039-0.249-0.102l0 0c-0.064-0.063-0.103-0.15-0.103-0.246s0.039-0.183 0.103-0.246l0-0 0.562-0.559 0.497 0.494-0.56 0.557zM32.011 21.491l-0.001 0.001-1.030 1.027-0.497-0.494 1.030-1.025c0.023-0.023 0.038-0.051 0.052-0.079 0.004-0.008 0.012-0.015 0.015-0.023 0.010-0.024 0.011-0.050 0.015-0.075 0.002-0.014 0.008-0.028 0.008-0.043 0-0.021-0.007-0.041-0.012-0.061-0.004-0.019-0.004-0.038-0.011-0.056-0.014-0.031-0.032-0.057-0.053-0.081l0 0c-0.006-0.007-0.008-0.015-0.015-0.022h-0.001l-0.001-0.001-0.937-0.933c-0.010-0.010-0.023-0.014-0.034-0.023-0.015-0.012-0.031-0.023-0.049-0.033l-0.002-0.001c-0.015-0.007-0.034-0.014-0.053-0.018l-0.002-0c-0.017-0.006-0.038-0.010-0.059-0.012l-0.001-0c-0.004-0-0.009-0-0.013-0-0.015 0-0.029 0.001-0.044 0.003l0.002-0c-0.021 0.003-0.041 0.005-0.061 0.012s-0.037 0.016-0.055 0.026c-0.012 0.006-0.025 0.009-0.035 0.017l-1.035 0.772-0.525-0.523 1.4-1.392 2.544 2.502-0.541 0.536zM35.989 17.398c-0.009-0.001-0.017 0.002-0.026 0.002-0.005-0-0.010-0-0.016-0-0.037 0-0.072 0.006-0.105 0.018l0.002-0.001c-0.022 0.008-0.040 0.017-0.057 0.028l0.001-0.001c-0.018 0.011-0.033 0.022-0.049 0.036-0.007 0.006-0.017 0.010-0.023 0.017l-2.741 3.002-2.525-2.483 1.653-1.644c0.056-0.056 0.091-0.134 0.091-0.22 0-0.172-0.139-0.311-0.311-0.311-0.001 0-0.001 0-0.002 0h0l-1.294 0.007 0.016-0.938 1.811 0.015c0.737 0.756 1.766 1.226 2.904 1.226 0.001 0 0.001 0 0.002 0h-0c0.255 0 0.504-0.027 0.746-0.071 0.023 0.019 0.046 0.037 0.075 0.049l1.406 0.56 0.089 0.442 0.104 0.517-1.752-0.249zM38.346 17.502l-0.182-0.909 0.844-0.63 0.221 0.293 0.331 0.44-1.214 0.806zM40.536 15.85l-0.489 0.458-0.543-0.721 0.485-0.372c0.091-0.070 0.205-0.098 0.317-0.083 0.113 0.016 0.212 0.075 0.28 0.166 0.051 0.068 0.082 0.155 0.082 0.248 0 0.12-0.051 0.228-0.132 0.304l-0 0z"></path>
<path fill="#212121" style="fill: var(--color5, #212121)" d="M34.603 17.485l-1.25-1.245c-0.056-0.056-0.134-0.091-0.219-0.091s-0.163 0.035-0.219 0.091v0l-1.25 1.245c-0.058 0.059-0.091 0.138-0.091 0.221s0.033 0.162 0.091 0.221l1.25 1.245c0.056 0.056 0.134 0.091 0.219 0.091s0.163-0.035 0.219-0.091v0l1.25-1.245c0.057-0.056 0.092-0.134 0.092-0.221s-0.035-0.164-0.092-0.221v0zM33.133 18.512l-0.809-0.805 0.809-0.806 0.809 0.805-0.809 0.805zM36.681 9.626l-0.15 0.604c0.041 0.010 1.014 0.263 1.014 1.253h0.622c0-1.177-0.972-1.73-1.486-1.858zM38.166 12.106h-0.622v0.622h0.622v-0.622z"></path>
</symbol>
<symbol id="icon-Group-1-1" viewBox="0 0 72 32">
<path fill="#f5f4fa" style="fill: var(--color4, #f5f4fa)" d="M1.067 0.001h69.869c0.589 0 1.067 0.478 1.067 1.067v29.868c0 0.589-0.478 1.067-1.067 1.067h-69.869c-0.589 0-1.067-0.478-1.067-1.067v-29.868c0-0.589 0.478-1.067 1.067-1.067z"></path>
<path fill="#212121" style="fill: var(--color5, #212121)" d="M44.619 19.558l-4.925-4.961 0.547-2.693c0.131 0.053 0.283 0.084 0.442 0.085h0.004c0.004 0 0.010 0 0.015 0 0.696 0 1.26-0.564 1.26-1.26s-0.564-1.259-1.26-1.259c-0.696 0-1.26 0.564-1.26 1.259 0 0.151 0.027 0.296 0.076 0.431l-0.003-0.009-2.893 0.353-4.72-4.744c-0.056-0.057-0.134-0.093-0.22-0.093h-0c-0.082 0.001-0.16 0.033-0.218 0.091l-0.882 0.877c-0.056 0.056-0.091 0.134-0.091 0.22s0.035 0.164 0.091 0.22v0l0.475 0.481c-1.839 3.382-1.242 7.571 1.47 10.304 0.025 0.024 0.054 0.043 0.085 0.057-0.019 0.096-0.030 0.206-0.030 0.319v3.61h-3.733c-0.859 0.001-1.555 0.697-1.556 1.555v0.622c0 0.172 0.139 0.311 0.311 0.311h14.312c0.172 0 0.311-0.139 0.311-0.311v-0.622c-0.001-0.859-0.697-1.554-1.555-1.556h-3.734v-1.6c0.585 0.123 1.181 0.185 1.778 0.187 1.505-0.002 2.919-0.387 4.152-1.063l-0.045 0.023 0.477 0.48c0.058 0.059 0.137 0.093 0.22 0.093 0.085-0.001 0.162-0.035 0.218-0.091h-0l0.882-0.877c0.056-0.056 0.091-0.134 0.091-0.22s-0.035-0.164-0.091-0.22v0zM40.248 10.304c0.112-0.111 0.267-0.18 0.438-0.18 0.343 0 0.622 0.278 0.622 0.622s-0.278 0.622-0.621 0.622h-0.002c-0.342-0.002-0.619-0.28-0.619-0.622 0-0.172 0.070-0.328 0.183-0.441l0-0h-0.001zM39.516 12.348l-0.349 1.718-0.686-0.69 1.035-1.029zM39.162 11.822l-1.12 1.114-0.866-0.871 1.986-0.242zM40.67 23.468c0.515 0 0.933 0.418 0.933 0.933v0 0.311h-13.689v-0.311c0-0.515 0.418-0.933 0.933-0.933v0h11.823zM36.315 22.224v0.622h-3.111v-0.622h3.111zM33.204 21.601v-2.365c0-0.755 0.698-1.369 1.556-1.369s1.556 0.614 1.556 1.369v2.365h-3.111zM36.937 20.612v-1.375c0-1.098-0.977-1.991-2.178-1.991-0.010-0-0.022-0-0.034-0-0.789 0-1.482 0.412-1.875 1.033l-0.005 0.009c-1.377-1.448-2.223-3.41-2.223-5.571 0-1.35 0.331-2.623 0.915-3.742l-0.021 0.045 10.851 10.914c-1.063 0.552-2.321 0.876-3.655 0.876-0.629 0-1.242-0.072-1.829-0.208l0.054 0.011zM43.523 20.213l-12.284-12.356 0.44-0.439 4.629 4.655c0.002 0 0.003 0.004 0.006 0.006l7.65 7.695-0.441 0.439z"></path>
<path fill="#2196f3" style="fill: var(--color3, #2196f3)" d="M34.762 18.49h-0.003c-0 0-0.001 0-0.001 0-0.516 0-0.933 0.418-0.933 0.933s0.417 0.933 0.932 0.933h0.003c0 0 0.001 0 0.001 0 0.516 0 0.933-0.418 0.933-0.933s-0.417-0.933-0.932-0.933h-0zM34.98 19.644c-0.056 0.056-0.134 0.090-0.219 0.090-0.172 0-0.311-0.139-0.311-0.311 0-0.086 0.035-0.164 0.092-0.221l0-0c0.058-0.058 0.136-0.090 0.218-0.091 0.171 0.001 0.31 0.14 0.31 0.311 0 0.086-0.035 0.164-0.092 0.221l-0 0h0.003z"></path>
</symbol>
<symbol id="icon-mail" viewBox="0 0 43 32">
<path fill="#2196f3" style="fill: var(--color3, #2196f3)" d="M38.667 0h-34.667c-2.206 0-4 1.794-4 4v24c0 2.206 1.794 4 4 4h34.667c2.206 0 4-1.794 4-4v-24c0-2.206-1.794-4-4-4zM38.667 2.667c0.181 0 0.353 0.038 0.511 0.103l-17.844 15.466-17.844-15.466c0.158-0.066 0.33-0.103 0.511-0.103h34.667zM38.667 29.333h-34.667c-0.736 0-1.333-0.598-1.333-1.333v-22.413l17.793 15.421c0.251 0.217 0.563 0.326 0.874 0.326s0.622-0.108 0.874-0.326l17.793-15.421v22.413c0 0.736-0.598 1.333-1.333 1.333z"></path>
</symbol>
<symbol id="icon-phone" viewBox="0 0 20 32">
<path fill="#757575" style="fill: var(--color6, #757575)" d="M17 0h-14c-1.654 0-3 1.346-3 3v26c0 1.654 1.346 3 3 3h14c1.654 0 3-1.346 3-3v-26c0-1.654-1.346-3-3-3zM3 2h14c0.552 0 1 0.448 1 1v21h-16v-21c0-0.552 0.448-1 1-1zM17 30h-14c-0.552 0-1-0.448-1-1v-3h16v3c0 0.552-0.448 1-1 1z"></path>
</symbol>
</defs>
</svg>
